<?xml version="1.0" encoding="UTF-8"?>
<svg viewBox="0 0 220 254" version="1.1" xmlns="http://www.w3.org/2000/svg" xmlns:xlink="http://www.w3.org/1999/xlink">
    <defs>
        <linearGradient x1="-4.78732863%" y1="26.8415049%" x2="101.673741%" y2="24.4731368%" id="linearGradient-1">
            <stop stop-color="#CAAD90" offset="0%"></stop>
            <stop stop-color="#C7B19E" offset="51.0417%"></stop>
            <stop stop-color="#867462" offset="100%"></stop>
        </linearGradient>
    </defs>
    <g id="Page-1" stroke="none" stroke-width="1" fill="none" fill-rule="evenodd">
        <g id="orient-group-logo-colorized-horizontal" fill="url(#linearGradient-1)">
            <path d="M0,63.3388 L0,189.938 L109.673,253.339 L219.329,190 L219.329,63.3388 L109.673,0 L0,63.3388 Z M47.7628,96.6336 L5.87223,73.343 L5.87223,119.877 L47.7628,96.6336 Z M165.828,93.1192 C175.511,87.7439 188.389,80.5887 213.441,66.6524 L109.673,6.80033 L5.90364,66.6524 L53.5555,93.1349 L109.473,61.9027 L165.828,93.1192 Z M159.852,96.4362 L109.484,68.5364 L59.5146,96.4467 L109.673,124.322 C136.626,109.326 146.712,103.729 157.4,97.797 C158.212,97.347 159.026,96.8945 159.852,96.4362 Z M213.472,73.343 L171.566,96.6336 L213.472,119.877 L213.472,73.343 Z M53.8077,99.963 L5.87223,126.662 L109.673,187.236 L213.472,126.678 L165.537,99.979 L109.673,131.028 L53.8077,99.963 Z M213.426,133.462 L172.602,157.303 L213.426,180.012 L213.426,133.462 Z M5.87223,133.462 L5.87223,179.839 L46.5852,157.208 L5.87223,133.462 Z M109.688,246.492 L213.315,186.639 L166.715,160.71 L111.148,193.22 L109.673,194.084 L52.4731,160.71 L5.88794,186.545 L109.688,246.492 Z" id="Shape"></path>
        </g>
    </g>
</svg>
