<?xml version="1.0" encoding="UTF-8"?>
<svg xmlns="http://www.w3.org/2000/svg" viewBox="0 0 1135 1311" fill="none">
  <path
    fill-rule="evenodd"
    clip-rule="evenodd"
    d="M0 327.771V982.904L567.542 1311L1135 983.229V327.771L567.542 0L0 327.771ZM247.167 500.067L30.3881 379.541V620.351L247.167 500.067ZM858.144 481.879C908.25 454.062 974.895 417.035 1104.53 344.918L567.542 35.1909L30.5506 344.918L277.141 481.961L566.51 320.336L858.144 481.879ZM827.22 499.044L566.57 354.664L307.979 499.099L567.542 643.351C707.028 565.746 759.221 536.781 814.535 506.084C818.732 503.754 822.947 501.415 827.22 499.044ZM1104.69 379.541L887.836 500.067L1104.69 620.351V379.541ZM278.449 517.297L30.3881 655.459L567.542 968.925L1104.69 655.541L856.635 517.377L567.542 678.054L278.449 517.297ZM1104.45 690.649L893.197 814.022L1104.45 931.542V690.649ZM30.3881 690.649V930.646L241.073 813.534L30.3881 690.649ZM567.622 1275.56L1103.88 965.836L862.729 831.657L575.179 999.889L567.542 1004.36L271.542 831.657L30.4694 965.349L567.622 1275.56Z"
    fill="white"></path>
</svg>
