<?xml version="1.0" encoding="UTF-8"?> <svg xmlns="http://www.w3.org/2000/svg" width="955" height="259" viewBox="0 0 955 259" fill="none"> <path d="M326.41 127.824C318.614 127.824 311.582 126.143 305.315 122.782C299.049 119.348 294.13 114.635 290.56 108.643C286.989 102.578 285.204 95.8195 285.204 88.3663C285.204 80.9131 286.989 74.1906 290.56 68.1993C294.13 62.1341 299.049 57.4213 305.315 54.0602C311.582 50.6259 318.614 48.9087 326.41 48.9087C334.207 48.9087 341.239 50.6259 347.505 54.0602C353.772 57.4213 358.69 62.0979 362.261 68.0897C365.831 74.0811 367.616 80.8402 367.616 88.3663C367.616 95.8924 365.831 102.652 362.261 108.643C358.69 114.635 353.772 119.348 347.505 122.782C341.239 126.143 334.207 127.824 326.41 127.824ZM326.41 115.329C331.511 115.329 336.102 114.197 340.182 111.932C344.263 109.593 347.469 106.378 349.801 102.286C352.132 98.1212 353.298 93.4812 353.298 88.3663C353.298 83.2514 352.132 78.6481 349.801 74.556C347.469 70.3914 344.263 67.1761 340.182 64.9111C336.102 62.5728 331.511 61.4034 326.41 61.4034C321.31 61.4034 316.719 62.5728 312.638 64.9111C308.558 67.1761 305.352 70.3914 303.02 74.556C300.688 78.6481 299.522 83.2514 299.522 88.3663C299.522 93.4812 300.688 98.1212 303.02 102.286C305.352 106.378 308.558 109.593 312.638 111.932C316.719 114.197 321.31 115.329 326.41 115.329Z" fill="white"></path> <path d="M479.709 126.729L464.082 104.26C463.424 104.333 462.439 104.369 461.131 104.369H443.861V126.729H429.649V50.0054H461.131C467.76 50.0054 473.515 51.1014 478.397 53.2935C483.353 55.4856 487.142 58.6275 489.766 62.7197C492.39 66.8114 493.702 71.6705 493.702 77.2969C493.702 83.0696 492.278 88.0383 489.439 92.2033C486.669 96.368 482.66 99.4736 477.417 101.52L495.014 126.729H479.709ZM479.382 77.2969C479.382 72.4012 477.778 68.6381 474.573 66.0078C471.369 63.377 466.667 62.0619 460.473 62.0619H443.861V92.6416H460.473C466.667 92.6416 471.369 91.3264 474.573 88.6956C477.778 85.9924 479.382 82.1927 479.382 77.2969Z" fill="white"></path> <path d="M556.546 50.0054H570.754V126.729H556.546V50.0054Z" fill="white"></path> <path d="M695.74 114.782V126.729H638.354V50.0054H694.209V61.9523H652.566V81.9003H689.507V93.6281H652.566V114.782H695.74Z" fill="white"></path> <path d="M826.569 50.0054V126.729H814.873L772.685 74.7762V126.729H758.584V50.0054H770.28L812.469 101.958V50.0054H826.569Z" fill="white"></path> <path d="M909.601 62.0619H884.244V50.0054H949.166V62.0619H923.809V126.729H909.601V62.0619Z" fill="white"></path> <path d="M517.678 186.806H521.179V196.792C519.914 197.841 518.443 198.646 516.766 199.206C515.088 199.767 513.337 200.047 511.514 200.047C508.937 200.047 506.614 199.487 504.545 198.365C502.48 197.219 500.85 195.658 499.659 193.683C498.493 191.683 497.908 189.44 497.908 186.953C497.908 184.466 498.493 182.222 499.659 180.222C500.85 178.223 502.48 176.662 504.545 175.54C506.64 174.419 508.984 173.858 511.587 173.858C513.63 173.858 515.479 174.199 517.131 174.882C518.809 175.54 520.233 176.516 521.398 177.808L519.136 180.076C517.097 178.101 514.628 177.113 511.733 177.113C509.789 177.113 508.038 177.54 506.481 178.394C504.949 179.223 503.745 180.393 502.868 181.905C501.994 183.392 501.556 185.075 501.556 186.953C501.556 188.806 501.994 190.488 502.868 192C503.745 193.488 504.949 194.659 506.481 195.512C508.038 196.365 509.776 196.792 511.694 196.792C513.983 196.792 515.974 196.243 517.678 195.146V186.806Z" fill="white"></path> <path d="M570.653 199.755L565.148 191.891C564.464 191.939 563.93 191.964 563.539 191.964H557.228V199.755H553.581V174.15H563.539C566.847 174.15 569.449 174.943 571.346 176.528C573.243 178.113 574.194 180.295 574.194 183.075C574.194 185.05 573.703 186.733 572.731 188.123C571.759 189.513 570.374 190.525 568.576 191.159L574.628 199.755H570.653ZM563.431 188.855C565.741 188.855 567.505 188.355 568.722 187.355C569.935 186.355 570.546 184.929 570.546 183.075C570.546 181.222 569.935 179.808 568.722 178.832C567.505 177.833 565.741 177.333 563.431 177.333H557.228V188.855H563.431Z" fill="white"></path> <path d="M617.027 200.047C614.45 200.047 612.128 199.487 610.063 198.365C607.994 197.219 606.364 195.646 605.172 193.646C604.006 191.647 603.421 189.416 603.421 186.953C603.421 184.49 604.006 182.258 605.172 180.259C606.364 178.259 607.994 176.699 610.063 175.577C612.128 174.431 614.45 173.858 617.027 173.858C619.582 173.858 621.892 174.431 623.961 175.577C626.026 176.699 627.643 178.259 628.809 180.259C629.979 182.234 630.559 184.466 630.559 186.953C630.559 189.44 629.979 191.683 628.809 193.683C627.643 195.658 626.026 197.219 623.961 198.365C621.892 199.487 619.582 200.047 617.027 200.047ZM617.027 196.792C618.902 196.792 620.58 196.365 622.064 195.512C623.569 194.659 624.748 193.488 625.6 192C626.477 190.488 626.912 188.806 626.912 186.953C626.912 185.099 626.477 183.429 625.6 181.941C624.748 180.429 623.569 179.247 622.064 178.394C620.58 177.54 618.902 177.113 617.027 177.113C615.156 177.113 613.452 177.54 611.921 178.394C610.416 179.247 609.224 180.429 608.347 181.941C607.495 183.429 607.069 185.099 607.069 186.953C607.069 188.806 607.495 190.488 608.347 192C609.224 193.488 610.416 194.659 611.921 195.512C613.452 196.365 615.156 196.792 617.027 196.792Z" fill="white"></path> <path d="M672.128 200.047C668.725 200.047 666.071 199.072 664.178 197.121C662.281 195.171 661.331 192.366 661.331 188.708V174.15H664.978V188.562C664.978 194.049 667.374 196.792 672.166 196.792C674.498 196.792 676.287 196.122 677.526 194.78C678.769 193.415 679.388 191.342 679.388 188.562V174.15H682.924V188.708C682.924 192.391 681.978 195.207 680.081 197.158C678.184 199.084 675.534 200.047 672.128 200.047Z" fill="white"></path> <path d="M725.792 174.15C729.1 174.15 731.703 174.943 733.599 176.528C735.496 178.113 736.443 180.295 736.443 183.075C736.443 185.855 735.496 188.038 733.599 189.623C731.703 191.208 729.1 192 725.792 192H719.482V199.755H715.834V174.15H725.792ZM725.685 188.818C727.995 188.818 729.758 188.33 730.971 187.355C732.189 186.355 732.795 184.929 732.795 183.075C732.795 181.222 732.189 179.808 730.971 178.832C729.758 177.833 727.995 177.333 725.685 177.333H719.482V188.818H725.685Z" fill="white"></path> <path fill-rule="evenodd" clip-rule="evenodd" d="M0 66.3388V192.938L109.673 256.339L219.329 193V66.3388L109.673 3L0 66.3388ZM47.7628 99.6336L5.87223 76.343V122.877L47.7628 99.6336ZM165.828 96.1192C175.511 90.7439 188.389 83.5887 213.441 69.6524L109.673 9.80033L5.90364 69.6524L53.5555 96.1349L109.473 64.9027L165.828 96.1192ZM159.852 99.4362L109.484 71.5364L59.5146 99.4467L109.673 127.322C136.626 112.326 146.712 106.729 157.4 100.797C158.212 100.347 159.026 99.8945 159.852 99.4362ZM213.472 76.343L171.566 99.6336L213.472 122.877V76.343ZM53.8077 102.963L5.87223 129.662L109.673 190.236L213.472 129.678L165.537 102.979L109.673 134.028L53.8077 102.963ZM213.426 136.462L172.602 160.303L213.426 183.012V136.462ZM5.87223 136.462V182.839L46.5852 160.208L5.87223 136.462ZM109.688 249.492L213.315 189.639L166.715 163.71L111.148 196.22L109.673 197.084L52.4731 163.71L5.88794 189.545L109.688 249.492Z" fill="url(#paint0_linear_306_55)"></path> <defs> <linearGradient id="paint0_linear_306_55" x1="-10.5" y1="71" x2="223" y2="65" gradientUnits="userSpaceOnUse"> <stop stop-color="#CAAD90"></stop> <stop offset="0.510417" stop-color="#C7B19E"></stop> <stop offset="1" stop-color="#867462"></stop> </linearGradient> </defs> </svg> 